HIERARCHY
ROOT Hip
{
    OFFSET 0.0 0.0 0.0
    CHANNELS 6 Xposition Yposition Zposition Zrotation Xrotation Yrotation
    JOINT RightHip
    {
        OFFSET -12.312263488769531 0.0 0.0
        CHANNELS 3 Zrotation Xrotation Yrotation
        JOINT RightKnee
        {
            OFFSET 0.0 0.0 -40.37564468383789
            CHANNELS 3 Zrotation Xrotation Yrotation
            JOINT RightAnkle
            {
                OFFSET 0.0 0.0 -48.72066879272461
                CHANNELS 3 Zrotation Xrotation Yrotation
                End Site
                {
                    OFFSET 0.0 -19.488265991210938 0.0
                }
            }
        }
    }
    JOINT LeftHip
    {
        OFFSET 12.312263488769531 0.0 0.0
        CHANNELS 3 Zrotation Xrotation Yrotation
        JOINT LeftKnee
        {
            OFFSET 0.0 0.0 -40.37564468383789
            CHANNELS 3 Zrotation Xrotation Yrotation
            JOINT LeftAnkle
            {
                OFFSET 0.0 0.0 -48.72066879272461
                CHANNELS 3 Zrotation Xrotation Yrotation
                End Site
                {
                    OFFSET 0.0 -19.488265991210938 0.0
                }
            }
        }
    }
    JOINT Spine
    {
        OFFSET 0.0 0.0 24.192739486694336
        CHANNELS 3 Zrotation Xrotation Yrotation
        JOINT Thorax
        {
            OFFSET 0.0 0.0 26.994895935058594
            CHANNELS 3 Zrotation Xrotation Yrotation
            JOINT Neck
            {
                OFFSET 0.0 0.0 12.848196029663086
                CHANNELS 3 Zrotation Xrotation Yrotation
                End Site
                {
                    OFFSET 0.0 0.0 5.139278411865234
                }
            }
            JOINT LeftShoulder
            {
                OFFSET 14.466825485229492 0.0 0.0
                CHANNELS 3 Zrotation Xrotation Yrotation
                JOINT LeftElbow
                {
                    OFFSET 27.703903198242188 0.0 0.0
                    CHANNELS 3 Zrotation Xrotation Yrotation
                    JOINT LeftWrist
                    {
                        OFFSET 22.818017959594727 0.0 0.0
                        CHANNELS 3 Zrotation Xrotation Yrotation
                        End Site
                        {
                            OFFSET 9.127206802368164 0.0 0.0
                        }
                    }
                }
            }
            JOINT RightShoulder
            {
                OFFSET -14.466825485229492 0.0 0.0
                CHANNELS 3 Zrotation Xrotation Yrotation
                JOINT RightElbow
                {
                    OFFSET -27.703903198242188 0.0 0.0
                    CHANNELS 3 Zrotation Xrotation Yrotation
                    JOINT RightWrist
                    {
                        OFFSET -22.818017959594727 0.0 0.0
                        CHANNELS 3 Zrotation Xrotation Yrotation
                        End Site
                        {
                            OFFSET -9.127206802368164 0.0 0.0
                        }
                    }
                }
            }
        }
    }
}
MOTION
Frames: 11
Frame Time: 0.03333333333333333
0.0 0.0 0.0 -177.64269554471443 0.0011086865329164848 -13.928906753305068 5.053517955011191 4.813736101117541 16.762109174678418 -0.7706308134624292 -5.155367760413568 3.841681309424779 2.758691436281349e-33 -3.975693351829397e-16 7.951386703658794e-16 0.372577971383053 -30.432556972178403 5.7184935587166015 -1.0219417758054656 13.12168996280448 1.5894303531350666 0.0 0.0 0.0 0.02995832435501995 -0.19978418265642256 -0.23665801536420547 -21.721378683310157 -1.2868777623264117e-07 8.048102656290074e-07 -3.6102360594883063 2.011193527354886 0.08073548977632286 -13.819765897964603 25.083044931967137 85.72595766831282 -58.59733777615308 -1.7395478173791933e-06 -3.958370427472126e-06 0.0 0.0 0.0 32.12947694704468 -48.153450210546126 6.7295101506056225 25.56421128378013 -1.8722262013203611e-06 1.8009135053617216e-06 0.0 0.0 7.951386703658791e-16
0.0 0.0 0.0 179.7479329420428 0.39031282264457207 -14.87340148648991 5.769000397791513 2.695240008021492 16.797144561720334 -0.41857806255677193 -3.2442332504621194 5.333933702616745 0.0 0.0 0.0 1.771800862094595 -30.724631397306954 8.68720175847784 -1.2459312368912683 15.402501269983443 -1.0155447057351752 0.0 -3.1805546814635168e-15 0.0 0.21945207896184815 -1.180478011728912 -0.5103955492654514 -18.562821040968075 3.757081827734225e-07 -1.9094728640453e-06 -3.94437807141612 1.804260195199845 4.001172925639435 -12.623597869878333 23.562483006436533 85.44893133438809 -62.127604217673124 -3.5232160190343393e-06 -2.492759889879842e-06 0.0 0.0 6.3611093629270335e-15 30.5496035356448 -63.00488476778686 5.295301988654998 29.300729689210275 -5.737223609133202e-06 3.1506192828725005e-06 0.0 0.0 0.0
0.0 0.0 0.0 -176.81271339735815 -2.486386569315887 -15.087016798941477 5.666411254887042 5.384971600012428 16.419900262179297 -0.11259165308909924 -1.0161561593141226 5.273314094557721 0.0 -1.4908850069360235e-16 0.0 0.6504095259664355 -27.4077537252728 10.2265190543536 -0.8997191820060889 16.50463226216563 -1.6591884212957848 0.0 0.0 0.0 0.248766630848521 -1.2749764054356107 -0.2675897145152229 -22.1578392979587 -1.273007913993886e-07 1.9636719771309515e-07 -6.187944891694125 1.1496399263994974 6.063022774784577 -7.332209741074854 24.025712048152172 84.66562789826993 -73.76104209328808 1.993674798221101e-06 -7.005208237695699e-06 -4.4139062980501586e-32 7.951386703658792e-16 6.3611093629270335e-15 -28.927418853143998 -82.53270609474426 -51.794839884811175 46.227061262788105 4.28915136439254e-06 -3.871986384028643e-06 0.0 0.0 0.0
0.0 0.0 0.0 -173.52404088936757 -4.255183699872797 -14.663280429756052 4.187865523018826 6.89648548390504 14.75774869048821 -0.05795322686966489 -0.709514497270593 6.670452656613076 0.0 0.0 0.0 2.64044268235026 -28.50869970194071 11.27659423968335 -1.455065324198018 21.111332808440878 -1.155177182223374 3.975693351829396e-16 0.0 0.0 0.25753687533165237 -1.2361002673693517 0.034687562643496206 -23.947188269840698 -5.48643644539809e-07 5.834326228056301e-07 -12.193221466965184 1.2103299451532983 6.011475159835618 -6.950430258025081 24.578143845954525 85.3111375328998 -82.78920172562137 3.4609564469912977e-06 3.885480459313275e-07 6.361109362927033e-15 -4.770832022195274e-15 2.648343778830095e-31 -28.750570794221023 -77.98769088686153 -53.782182548080485 54.418172935441795 -2.6538324964546158e-06 5.59147377165261e-07 8.827812596100317e-32 -6.3611093629270335e-15 1.5902773407317584e-15
0.0 0.0 0.0 -171.08896141802595 -4.219930103299892 -12.591047982546337 5.962420556905779 5.286199307754341 13.541778458528272 0.25919038844571957 2.5605447263300456 3.2468216483037056 0.0 1.987846675914698e-16 0.0 1.9926525626968417 -34.86751777665539 7.134840024682649 -3.385141568148878 28.114395471852443 5.676975609338322 -3.975693351829396e-16 -1.5902773407317584e-15 7.951386703658792e-16 0.37424388510907886 -2.2249928056543116 -0.14578296568574778 -24.544947650792874 -8.19715765560513e-07 -8.907753127849979e-08 -13.348931145027597 5.591476833493109 4.825899529134448 -8.850813519946835 22.951331781624024 84.07469614467091 -79.1763975719153 6.257685790160375e-07 1.0049902472649636e-06 0.0 0.0 0.0 -30.69397493499044 -70.43723871251234 -54.71283646916275 71.9827817263852 -4.870332449116203e-06 1.0024445243985608e-06 6.3611093629270335e-15 -8.827812596100317e-32 -1.5902773407317584e-15
0.0 0.0 0.0 -167.19245550179633 -4.516180526044536 -10.467628945640802 6.279333088983273 2.9565054573887246 14.45309956146202 1.0139388652346126 6.139238789704372 -3.256352021246186 0.0 0.0 0.0 2.4979736585165497 -41.19555372990771 6.006755278135263 -5.041845858889424 38.293586543219625 8.652997131636566 0.0 0.0 1.987846675914698e-16 0.03867194435269281 -0.2986844501876527 -0.7172699492727659 -24.0601108096224 2.5663365594998987e-07 -1.103369626347177e-06 -7.912144576497856 6.855858991325744 2.5413272905172413 -16.166017103884446 21.896888053734557 80.09368842403225 -81.65626840031608 2.7523033400885176e-06 -2.2430045831389182e-06 6.361109362927032e-15 0.0 0.0 -12.475360738139575 -56.06338776715079 -44.02071082562745 90.1632782360715 -4.177790212084823e-06 -6.99137729184612e-07 0.0 -6.3611093629270335e-15 0.0
0.0 0.0 0.0 -164.64226958604013 -9.363528199111146 -9.621951816716223 1.3227284526399314 7.363389052646143 14.264825276170525 1.289068917479201 6.6739270151674885 -7.582579261284024 0.0 0.0 0.0 5.369823440853076 -40.69230409008691 6.075422886319548 -4.855971708547448 46.57627779575353 7.504267090369507 -1.5902773407317582e-15 3.9756933518293955e-16 1.9878466759146977e-16 -0.5511946585430485 5.399670029173749 2.5816939937711245 -19.25082276161735 1.7864028244992682e-08 -3.7983492784178284e-07 -5.6477556056501825 8.831419620183002 4.069552646145066 -23.891509906348077 24.367889912261813 75.17389460453433 -85.7810599328877 3.5615341109785475e-06 -1.4750035325050698e-06 0.0 -6.361109362927035e-15 0.0 -1.739213755819097 -45.170244986709804 -43.71084265836816 94.33948429556351 -7.132847993599711e-08 3.92180358763144e-06 -1.3241718894150476e-31 -6.361109362927032e-15 -2.3854160110976368e-15
0.0 0.0 0.0 -166.3782547150577 -14.840546821125738 -13.258303906061048 -1.9718709744495395 8.34487645517494 21.25726895633267 4.387304593947405 15.06591659450219 -16.061160257786522 0.0 0.0 0.0 9.561071488904753 -39.15328656651493 9.39855699609298 -4.8198544935405945 51.44731784793721 8.450447121951528 3.1805546814635164e-15 2.758691436281349e-33 9.939233379573489e-17 -2.1668815015798044 15.302439611127589 14.0959154122825 -5.394886737057261 -3.214229167381868e-08 1.1756254753519988e-08 -6.818022206085176 11.300215680303545 1.769268808057931 -31.630453009692683 18.617257589187158 70.87544140264109 -88.22144910559716 2.0648070608173227e-06 1.9508538981127348e-07 -6.361109362927033e-15 6.361109362927033e-15 3.531125038440127e-31 -1.076981252098706 -45.815569263396064 -69.29531356077332 104.35783310703496 -2.6840227131233773e-06 -2.677642080089508e-06 3.1805546814635164e-15 3.1805546814635156e-15 -8.34895603884173e-15
0.0 0.0 0.0 -168.86303888414577 -14.425248267097528 -16.080243088491365 -1.5231042772305736 7.935108634815272 24.075842963347487 5.208371174397422 16.56667634296459 -19.093434033582565 0.0 0.0 1.5902773407317584e-15 8.935437800185092 -38.59134840038758 7.748393805081883 -6.358767092154133 48.44223969714307 15.276769584473067 0.0 0.0 -9.93923337957349e-17 -2.3764254233304527 15.045780572711806 19.334020232864773 10.146338909007891 8.156225842615818e-11 -2.2461771347966816e-07 -11.86990243840172 13.566213573107584 3.66151781886358 -37.050691888556344 17.686372641796286 74.82314780151508 -80.76554793853136 -4.867726471765443e-06 3.116187072779627e-06 0.0 0.0 0.0 4.3745597299313275 -48.768177574204245 -67.76926842545328 124.18627496897042 -5.602717909518288e-07 -2.049654107973511e-06 -3.9756933518293955e-16 -2.2414367919785963e-33 6.460501696722768e-16
0.0 0.0 0.0 -167.12671451446002 -14.235473871687756 -16.468682981297125 -2.039464318489475 8.923925446078105 24.21838010825766 4.517247365839822 15.087422473052253 -19.528925787597604 0.0 0.0 0.0 9.199962577387357 -38.00463516554701 7.868071916450005 -6.134566597564888 47.06772387288312 15.756314053099196 0.0 0.0 1.987846675914698e-16 -2.621246602430175 15.64143408319213 19.444790034723272 10.848912587001983 -3.436619516821443e-08 -6.214276144322931e-08 -11.007645005549568 13.44370251468112 6.164264524541596 -28.763469243070684 21.45143161712023 75.74011218722114 -76.50567505089099 -4.0879957717905144e-07 1.1853969788368147e-06 -6.361109362927033e-15 -3.1805546814635164e-15 -1.7655625192200634e-31 34.56941610209266 -40.58598439035816 -47.69761856809534 142.6489612454496 -5.060519194630537e-06 -3.04306135382906e-06 0.0 0.0 1.9878466759146984e-15
0.0 0.0 0.0 -164.01188500140668 -14.205098115235241 -14.310847526442023 -2.0032085689867665 7.522430580222666 21.277759991117893 4.396506865232688 17.943728126633953 -19.24381455688031 -3.1805546814635164e-15 -4.4139062980501586e-32 1.5902773407317582e-15 8.579556591868709 -38.804360843351525 7.404011777693523 -4.841633551550567 45.58310224569959 13.612289105263388 0.0 0.0 1.9878466759146985e-16 -2.475627013907836 15.797260655287062 18.42618960277626 9.051025378980851 1.0749691058052738e-07 1.2510969904690594e-07 -16.916520278558203 14.621499639121717 3.3243838803323627 -40.34156486426548 22.71594072085507 76.45438196128804 -69.5513279936098 1.238486004325816e-06 1.6444601630242943e-06 0.0 1.5902773407317584e-15 0.0 41.03785929860605 -39.183816012199244 -47.79305421203074 143.87960856818412 5.208033107360731e-07 -3.2056410207819033e-06 -2.2069531490250793e-32 -3.1805546814635164e-15 -7.951386703658791e-16
